<?xml version="1.0" encoding="UTF-8"?>
<svg viewBox="0 0 400 222.67" xmlns="http://www.w3.org/2000/svg">
 <g fill="#fff" fill-rule="evenodd" stroke="#000">
  <path d="m7.6669 83.067c24.939 41.905 47.334 76.684 72.273 118.59 51.236-24.6 72.952-32.913 117.57-48.352 19.51 5.5986 40.038-4.5807 48.352-12.215 36.815-5.0896 79.738-11.197 121.13-15.269-1.0179-6.6165 1.0179-9.1613 0-15.778-42.923-31.386-86.354-64.299-129.28-95.685-78.38 22.225-151.67 46.485-230.05 68.71z" stroke-width="5"/>
  <g stroke-width="3.75">
   <path d="m17.337 84.594l67.183 106.88c39.699-20.868 86.822-51.95 123.69-43.647-1.7895-12.272 3.9788-19.145 11.187-27.099-59.888-10.349-89.747 24.091-132.33 40.717l-2.5448 25.957c1.1876-8.313 1.3572-16.626 2.5448-24.939-19.341-30.029-42.244-67.692-61.585-97.721-6.2772 3.0538-6.9558 12.724-8.1434 19.85z"/>
   <path d="m213.8 132.44c16.456-31.386 29.803-33.604 62.094-38.172 25.298-3.5795 43.036-2.7351 68.823-3.9227-2.2055 7.4648 1.5836 17.325 4.9768 27.335-24.261 1.0179-43.432-0.50897-70.237 3.0538-17.814-1.5269-33.592 9.6703-45.298 21.376 1.0179-21.716-11.197-8.3131-20.359-9.6703z"/>
  </g>
  <g stroke-width="2.5">
   <path d="m139.49 45.913c25.448 24.6 50.896 49.2 76.345 73.8-61.669-7.6345-94.582 29.774-129.28 41.99-20.019-31.725-41.311-65.487-61.33-97.212 25.109-12.046 41.686-31.891 78.126-34.864 14.124-1.1524 25.109 8.313 36.136 16.287z"/>
   <path d="m219.5 120.97c18.954-32.03 58.062-27.352 124.88-32.39-35.269-23.993-70.539-47.986-105.81-71.978-46.186 8.9973-77.257-10.077-102.21 25.552l83.135 78.816z"/>
  </g>
 </g>
</svg>
